/* XPM */
static char *_3ace517e4c34fbadcf74b031585eecehWPNxNAX0xhajtse[] = {
/* columns rows colors chars-per-pixel */
"64 64 178 2 ",
"   c None",
".  c #B29F2B",
"X  c #BAA127",
"o  c #B3A12B",
"O  c #BBA32C",
"+  c #BEAA2E",
"@  c #BDA635",
"#  c #BFA836",
"$  c #BFA939",
"%  c #D3BA2A",
"&  c #C3AB36",
"*  c #C3AC38",
"=  c #C7B036",
"-  c #C9B333",
";  c #CCBA35",
":  c #C7B23A",
">  c #C9B33B",
",  c #CDBA3D",
"<  c #D6BF37",
"1  c #D1BD3E",
"2  c #DAC22B",
"3  c #D7C037",
"4  c #DDC636",
"5  c #DFC837",
"6  c #D3C23E",
"7  c #DEC738",
"8  c #D7CC3F",
"9  c #DFC838",
"0  c #E1C937",
"q  c #E1CC3A",
"w  c #E5D33E",
"e  c #E8D63F",
"r  c #E6D93F",
"t  c #BDAD41",
"y  c #BBB043",
"u  c #C2AD44",
"i  c #CBB542",
"p  c #CEBB44",
"a  c #C4B04D",
"s  c #CDBA4B",
"d  c #D1BF40",
"f  c #D2BE4C",
"g  c #CFBB51",
"h  c #D2BE52",
"j  c #CBB962",
"k  c #CDBC6A",
"l  c #CFBF70",
"z  c #D0BF72",
"x  c #D6C242",
"c  c #D9C343",
"v  c #D7CD41",
"b  c #D9CE42",
"n  c #DFD145",
"m  c #D4C054",
"M  c #DACC53",
"N  c #D4CD5B",
"B  c #DBCD59",
"V  c #D7D158",
"C  c #E2CE42",
"Z  c #E3D545",
"A  c #E8D741",
"S  c #E6D945",
"D  c #EBDB43",
"F  c #E5D44A",
"G  c #E7DA48",
"H  c #E9DD48",
"J  c #E6D550",
"K  c #E7D952",
"L  c #E8DB55",
"P  c #EFE147",
"I  c #EEE249",
"U  c #F4EC46",
"Y  c #F1E549",
"T  c #F5ED4E",
"R  c #F7F04D",
"E  c #EFE451",
"W  c #EDE25D",
"Q  c #F1E753",
"!  c #F6EF50",
"~  c #F0E559",
"^  c #F4ED5C",
"/  c #F7F051",
"(  c #F9F352",
")  c #F7F15B",
"_  c #F8F35C",
"`  c #D7D260",
"'  c #D8D361",
"]  c #D1C175",
"[  c #D4C57C",
"{  c #E3DB66",
"}  c #E6DF69",
"|  c #E0CF74",
" . c #E1D279",
".. c #EEE664",
"X. c #EFE963",
"o. c #E6E16B",
"O. c #E9E26B",
"+. c #EFE96A",
"@. c #F0E966",
"#. c #F0EB6C",
"$. c #F7F264",
"%. c #F9F561",
"&. c #F7F36A",
"*. c #E9E771",
"=. c #EFE973",
"-. c #EEE77B",
";. c #EFE87B",
":. c #F2EF73",
">. c #F3F076",
",. c #F6F374",
"<. c #F6F474",
"1. c #F5F379",
"2. c #F5F37A",
"3. c #F5F47B",
"4. c #F6F67B",
"5. c #F7F77A",
"6. c #F6F67A",
"7. c #F5F57D",
"8. c #F6F57D",
"9. c #F6F67D",
"0. c #F5F57E",
"q. c #F6F67E",
"w. c #F7F67E",
"e. c #F7F77E",
"r. c #F6F67F",
"t. c #F7F77F",
"y. c #F7F77F",
"u. c #F6F67E",
"i. c #F8F77F",
"p. c #F8F77F",
"a. c #F7F87F",
"s. c #F8F87F",
"d. c #F9F97F",
"f. c #FCFB7C",
"g. c #F8F87F",
"h. c #D5C680",
"j. c #D7C986",
"k. c #D7CA8A",
"l. c #D9CC8D",
"z. c #DFD48E",
"x. c #DBCE92",
"c. c #DBD095",
"v. c #DED39B",
"b. c #E3D482",
"n. c #E9DE87",
"m. c #E5D78A",
"M. c #E6D98E",
"N. c #E9DE88",
"B. c #EADF8B",
"V. c #E9DD88",
"C. c #EADD8B",
"Z. c #EBDF90",
"A. c #EAE08A",
"S. c #EBE18D",
"D. c #EBE28E",
"F. c #ECE189",
"G. c #F2ED85",
"H. c #F7F780",
"J. c #F6F780",
"K. c #F7F782",
"L. c #F7F780",
"P. c #F8F780",
"I. c #F8F780",
"U. c #F7F880",
"Y. c #F7F881",
"T. c #F7F880",
"R. c #F8F880",
"E. c #F8F981",
"W. c #F8F882",
"Q. c #F8F982",
"!. c #F9FA82",
"~. c #F8F984",
"^. c #F8F880",
"/. c #F5F68A",
"(. c #F3EE92",
"). c #F3F09A",
"_. c #F4F29A",
"`. c #EBE5B7",
/* pixels */
"                                                                                                                                ",
"                                                                                                                                ",
"                                                      m s B @.) ) ~ F F F B.                                                    ",
"                                              B ^ ) Q Y U Y R T T T T T T ! ,.=.S.                                              ",
"                                      `.M ^ ! Y R ! / / / / ! ! ! ! / / ! $.5.6.2./.=.S.                                        ",
"                                    B Q Y / / / ! ! ! / ! ! / / ! ! / T ^ 6.H.I.H.e.6.0.=.S.                                    ",
"                                B ! T T / / / / ! ! ! / / / / / / / R / $.e.e.e.H.e.H.H.6.e.=.B.                                ",
"                              M Y / ! / / / T ! / / T Y I Y Y Y Y I Y Q >.Y.Q.Y.e.e.H.e.H.H.e...A.                              ",
"                          m C Y / / / / ! / / T Y Y D 0 A q A q A w w 9 F +.+.:.H.H.H.e.I.e.H.e.e.=.B.                          ",
"                        p 3 0 w Y ! T / T Y Y P q A q A T T T T T T ! E Z F F L #.:.:.H.e.e.H.e.e.s...B.                        ",
"                      p 4 0 4 4 w / / / D q w D ! T T T ! / / / / T ) e.2.2.3.+.F C F :.Q.H.e.H.e.H.H...B.                      ",
"                    p 4 7 4 4 4 w T Y P q A T T / / / / T T T / T T $.e.e.Y.e.e.e.+.C L #.:.H.e.H.e.e.Q...B.                    ",
"                  d 4 9 4 7 0 4 w D A A T T T / / / / ) _ _ _ _ _ $.Q.Q.Q.a.a.a.H.e.e.+.F K :.H.e.e.H.e.I...B.                  ",
"                h 3 7 4 7 7 4 4 0 A Y ! T / / / / T ) :.*.} } O.O.O.o.o.*.9.Y.a.H.H.H.e.3.+.L :.H.e.e.H.e.Q...                  ",
"                4 7 7 9 7 0 4 9 A T / / / / / / / T $.} * d d d p p m $ y 9.Y.a.I.i.e.e.H.H.+.L :.Y.e.I.e.H.6._.                ",
"              f 4 7 0 4 4 4 4 w T T / T / / / / / T %.{ 1 Y Q Y Y ^ 1.V y 9.Y.a.e.H.I.I.H.e.e.+.K :.H.e.s.e.Y.<.(.              ",
"            h 3 7 4 5 4 9 q 4 w T T / ! ! ! / ! ( T %.{ d / / / / ) f.' t e.Q.e.e.I.e.e.I.H.e.H.+.L :.Y.H.i.e.I.X.              ",
"            4 0 4 9 4 9 A D 4 w T ! ! ! ! / / ! ( T _ { 1 T / ! / ! %.' y 6.Q.e.H.e.I.Q.e.I.e.e.Y.+.L :.e.e.e.H.6.).            ",
"          h 4 4 5 9 4 w D 9 4 w T / T ! / ! / / / T %.{ d ! / ! / T _ V y 0.Y.e.e.I.e.H.I.e.Q.e.e.Y...J I.H.e.e.~.X.            ",
"          4 4 4 5 4 4 q 9 4 4 4 w Y / R / / ! ! ( T %.{ 1 T / / / T ( v t 0.Y.H.e.Q.I.e.i.Q.e.I.e.Q.#.K :.H.e.H.H.$.;.          ",
"        f 4 7 7 4 5 A D 4 5 7 7 0 q Y / ! / / / / T %.{ 1 ! / ! / ! / v y 3.a.e.e.Q.i.Q.e.H.e.I.e.e.H...F :.Q.e.&.( S           ",
"        7 7 7 9 4 w P 0 4 4 9 4 7 0 w T ! T / ! ( T %.{ d T / ! / R ( v y 0.a.e.H.I.s.i.I.e.Q.e.s.e.Y.#.C F <.&./ / U ;.        ",
"        7 7 0 7 4 w D 7 4 0 9 0 7 0 4 q T / / / / T $.{ 1 ! / ! / / ( 8 y 0.Q.e.e.i.i.e.i.i.e.Y.i.e.H.e.W Z ! / / ! ( Z         ",
"      h 4 9 9 4 9 q 9 4 9 9 4 4 0 4 4 0 q Y / T T R $.{ d T / ! / / ( 8 t e.i.e.Y.Y.a.Y.Y.Y.s.e.e.H.e.&.I D Y T ! ! / A z.      ",
"      7 4 4 9 4 w D 9 7 9 5 7 5 7 0 7 4 4 w T T / T %.{ 1 T / / / ! ( 8 y 0.a.a.H.H.I.i.i.i.e.H.3.3.&.! T P A R / ! / U         ",
"      7 7 9 5 4 w D 4 5 0 7 9 9 7 4 7 0 4 4 q T ! T %.{ d T / ! / T ( v y 0.a.Y.H.Y.H.H.H.H.e.6.&.! ! ! R P Z / ! ! / R G.      ",
"    g 4 0 7 7 0 q 5 4 4 9 4 4 5 7 7 4 0 4 4 4 w T T _ { 1 ! / ! / ! / v $ <.<.<.<.<.<.<.<.6.&./ / T R / / I w Y R ! ! ( Z       ",
"    > 4 9 9 4 w P 4 7 0 7 7 0 9 4 0 4 7 5 5 4 4 w Y %.} 1 T / ! / ! ( v $ Q / / ! / / ! / ! ! T / / / / / I 9 A ! ! ! / w x.    ",
"    i 4 4 4 4 w I 4 4 0 7 9 7 9 0 9 7 0 4 9 4 7 4 q ^ L p ! / ! / / ( v + / / / / / ! ! ! ! ! ! / / / / T / D w T ! / ( w c.    ",
"    i 4 7 0 4 e P 5 4 9 7 4 0 9 0 9 4 9 0 4 9 9 0 0 A F , ! / ! / R ( v # / / / / / / / / / / / ! T ! / / / P w ! / / ( w v.    ",
"    i 4 0 7 4 w P 5 4 9 4 9 9 9 7 9 9 7 7 5 4 0 4 4 w Z d ! ! ! / R ( v + T / / T / / / T / / / / / ! / ! / I w T / / / S v.    ",
"    i 4 7 9 4 w P 5 9 9 5 0 9 7 9 9 9 0 7 9 5 4 0 4 e Z d T / ! ! ! _ v + T / ! / ! ! T / / T ! / ! ! / ! / P w T / / ( w v.    ",
"    > 4 7 7 4 A I 4 4 9 4 5 9 9 0 9 0 7 0 4 7 9 0 4 w F 1 ! / / ! ! _ 8 + ! ! ! / / / / / / / / R ! ! ! T / I w T / ! ( w v.    ",
"    i 4 7 4 4 w P 5 4 9 9 4 4 9 7 7 9 9 9 9 0 7 7 4 r Z d T / T ! ! ( v + T ! ! R / ! ! / ! / / / / / / / / P w T / ! ( n v.    ",
"    i 4 4 9 4 w P 5 5 7 7 9 5 4 9 4 0 9 9 9 7 7 9 4 e Z 1 ! / ! ! ! / v . r Y U / / / / / T T / ! ! ! / ! / I D / / T ( r v.    ",
"    u 4 5 4 4 A I 4 4 5 4 4 9 4 4 9 7 9 9 7 0 9 4 4 A Z d T / / / ! ( v o 5 8 b Y Y Y Y I T / / ! ! ! ! / T Y T T ! ! / q v.    ",
"    $ & 4 4 4 q P q 3 4 5 4 5 9 7 4 7 4 9 4 9 7 0 4 e Z 1 ! / T R / ( v o 5 5 5 9 9 9 9 9 w Y Y I T ( / R D w / / / ! I % c.    ",
"    ] @ = 4 4 4 e Z # * 3 4 4 4 0 9 9 5 9 4 9 4 7 4 A Z 1 Y T T / R ( v o 2 5 5 4 5 5 5 4 9 9 0 5 w I Y D 9 r Y Y Y D q x       ",
"      * & 4 3 4 A G @ @ & 4 4 4 4 4 4 0 0 7 7 7 7 4 A D 7 0 q Y T / ( v . 4 5 5 9 9 9 9 9 4 7 4 4 5 5 9 9 w I 9 0 9 9 2 Z.      ",
"      $ @ & & 3 w A : @ # = 3 5 9 7 4 7 4 5 4 7 0 4 w Y 7 7 0 4 w I R 8 o 4 4 8 4 4 5 4 9 9 9 0 4 4 5 4 4 w I 5 9 9 9 2 M.      ",
"      [ @ @ @ = ; w n @ @ @ : 3 3 4 4 7 4 5 9 7 0 4 w P 0 4 7 4 4 7 r 8 o 4 5 4 7 5 9 9 4 5 4 4 9 9 7 4 4 A D 4 9 9 0 x         ",
"        t @ @ & @ x I : @ @ @ # # & < 7 4 4 9 4 4 4 Z P 4 4 0 7 4 4 5 - . 4 5 4 4 9 9 9 9 9 9 7 4 4 0 4 w Y 0 4 9 9 2 B.        ",
"        $ @ @ @ @ > I Z @ @ @ # @ @ @ - 4 0 4 5 0 4 w P 4 4 0 0 5 4 0 - o 4 5 5 4 9 9 9 9 4 4 4 4 0 9 9 A D 4 4 7 9 2 M.        ",
"        z @ @ & @ @ x Z : @ # # # # @ & < 3 3 < < 4 A P 0 4 7 4 5 5 5 - o 4 9 4 4 5 9 9 4 9 5 5 9 9 7 q D 0 4 4 4 9 x           ",
"          @ @ $ @ @ @ x Z @ @ @ @ @ @ @ & & # # = 4 e P 4 4 7 4 5 4 0 - o 4 5 5 4 0 9 4 4 5 4 9 4 4 9 q 0 4 4 7 7 2 m.          ",
"          z @ $ # # @ > Z : @ @ @ * # @ @ @ @ @ & < w P 7 7 0 7 5 5 5 - o 4 5 4 7 9 9 4 0 4 9 9 7 9 D D 4 0 7 4 7 c             ",
"            @ @ # @ @ @ , n : @ @ $ @ $ # $ $ @ # @ x D 5 9 7 0 9 4 0 - o 4 5 4 4 4 9 9 7 9 7 5 4 w D 5 4 7 4 7 2 b.            ",
"            z O # # # @ @ p F > @ @ @ * @ # @ @ # @ , I 4 4 4 4 4 4 4 - o 4 5 4 9 4 5 4 9 4 4 9 0 5 4 4 4 7 7 4 d               ",
"              l @ $ @ @ $ @ , Z > @ @ @ @ @ $ # @ @ 1 Y w w q w w w w ; . 4 5 4 9 4 7 9 4 4 4 A D 4 4 5 4 4 0 x                 ",
"                @ @ @ @ $ @ @ , n > @ @ @ $ @ # $ @ , H H H H H D H I 6 + 4 4 5 4 9 5 5 4 4 D D 9 4 9 9 4 4 2 b.                ",
"                k O @ @ $ @ @ @ , n , : @ @ # @ @ @ $ * * * * * * * & = < 3 4 4 5 4 5 4 5 A D 9 4 4 9 4 4 4 1                   ",
"                  k @ & @ @ $ @ @ , G n , * @ @ # @ # @ @ @ @ @ @ @ @ @ & = < 4 4 4 9 9 w D 9 4 4 9 4 9 4 1                     ",
"                    k O * @ @ @ @ @ * > I H , : @ @ @ # # $ @ @ @ @ $ @ @ @ @ > q w A D 4 0 4 4 9 5 4 4 1                       ",
"                      k O $ @ * & @ @ @ , H H Z , > > * @ @ @ @ @ @ @ @ * , : 6 I Y D 4 4 7 4 4 7 9 4 1                         ",
"                        k O @ @ # # # @ $ $ : 7 G G S 7 > , , , , , > 6 A I I D 5 9 5 4 4 0 4 7 5 2 1                           ",
"                            j @ $ # @ # # @ @ & * * , G S G G G G G G G Z 3 7 3 3 4 4 4 7 7 0 4 c |                             ",
"                              k O @ @ * @ @ @ $ @ @ @ * * * * * * * * * * * @ & @ = 4 0 9 9 2 d                                 ",
"                                x.j O O * $ @ $ @ * @ @ @ @ @ @ @ @ @ @ @ @ @ @ @ @ * 3 % c  .                                  ",
"                                    c.j O O @ @ $ $ @ @ @ & # * $ & @ @ $ @ $ $ $ @ O u [                                       ",
"                                        k.j.j O O @ @ @ $ $ $ * $ $ $ $ $ @ O O O u [                                           ",
"                                              l.[ k.k O O O O O O O O O O a j.h.[                                               ",
"                                                      k.h.j.j.j.j.j.k.j.h.                                                      ",
"                                                                                                                                ",
"                                                                                                                                "
};
