/* XPM */
static char *result[] = {
/* columns rows colors chars-per-pixel */
"64 64 228 2 ",
"   c #0F0711",
".  c #120A15",
"X  c #18121D",
"o  c #1B1218",
"O  c #130B0C",
"+  c #21160C",
"@  c #22180D",
"#  c #221E15",
"$  c #2C1C1E",
"%  c #281A17",
"&  c #381B19",
"*  c #3E1A00",
"=  c #27211A",
"-  c #3A2518",
";  c #3F2B0E",
":  c #261920",
">  c #291B23",
",  c #26142D",
"<  c #311C25",
"1  c #2E1632",
"2  c #341C3A",
"3  c #2B2423",
"4  c #2C292B",
"5  c #32272B",
"6  c #342B2D",
"7  c #392822",
"8  c #2E2B33",
"9  c #332D35",
"0  c #3A2C36",
"q  c #332C39",
"w  c #3D2E3A",
"e  c #362632",
"r  c #36313C",
"t  c #3B353B",
"y  c #3B3437",
"u  c #36312E",
"i  c #482817",
"p  c #552B1E",
"a  c #4B3315",
"s  c #593619",
"d  c #50330A",
"f  c #633C19",
"g  c #7E3D1C",
"h  c #4C1D24",
"j  c #451427",
"k  c #41393E",
"l  c #4F3225",
"z  c #682E26",
"x  c #441D19",
"c  c #5E441A",
"v  c #6D4B0A",
"b  c #79540C",
"n  c #644313",
"m  c #6A4419",
"M  c #6B4A17",
"N  c #754B19",
"B  c #745516",
"V  c #7B5A16",
"C  c #785818",
"Z  c #714C0B",
"A  c #4E423C",
"S  c #644725",
"D  c #6D522B",
"F  c #75582A",
"G  c #3F1E45",
"H  c #3C2C43",
"J  c #342140",
"K  c #3B3444",
"L  c #3C3945",
"P  c #3E3B4A",
"I  c #3F3348",
"U  c #401F46",
"Y  c #412147",
"T  c #44234C",
"R  c #47274D",
"E  c #413542",
"W  c #423A42",
"Q  c #44354C",
"!  c #423A4C",
"~  c #483E4F",
"^  c #452553",
"/  c #4E2656",
"(  c #472954",
")  c #4C2B55",
"_  c #4F275A",
"`  c #4D295B",
"'  c #472958",
"]  c #51285B",
"[  c #502758",
"{  c #4C3356",
"}  c #453D52",
"|  c #493C54",
" . c #493C55",
".. c #52335D",
"X. c #542B64",
"o. c #562E6E",
"O. c #543663",
"+. c #5A3B67",
"@. c #57316D",
"#. c #58336D",
"$. c #5C3B6A",
"%. c #563966",
"&. c #572F70",
"*. c #582F70",
"=. c #593170",
"-. c #5C3971",
";. c #573070",
":. c #4F2C61",
">. c #623D6D",
",. c #623F73",
"<. c #4C444B",
"1. c #4D4446",
"2. c #544B4A",
"3. c #474155",
"4. c #4B4255",
"5. c #4C445A",
"6. c #4E4A5B",
"7. c #4D4B53",
"8. c #51465C",
"9. c #524B5D",
"0. c #534A53",
"q. c #5A535A",
"w. c #5A524E",
"e. c #79654F",
"r. c #544D62",
"t. c #5E436F",
"y. c #594D64",
"u. c #555365",
"i. c #5A5366",
"p. c #5C566B",
"a. c #5D5A6B",
"s. c #595866",
"d. c #5E5A71",
"f. c #5D5771",
"g. c #544766",
"h. c #64436F",
"j. c #645D6E",
"k. c #685E69",
"l. c #644472",
"z. c #694577",
"x. c #654972",
"c. c #6B4A77",
"v. c #674A7B",
"b. c #6C4B7A",
"n. c #674578",
"m. c #754E7E",
"M. c #784F7F",
"N. c #645E72",
"B. c #645F75",
"V. c #76507F",
"C. c #78507F",
"Z. c #646274",
"A. c #696174",
"S. c #666479",
"D. c #69667A",
"F. c #6C697D",
"G. c #6F6B77",
"H. c #726C71",
"J. c #8B3923",
"K. c #9A2435",
"L. c #95392C",
"P. c #9F1F3B",
"I. c #825A19",
"U. c #815114",
"Y. c #8C6515",
"T. c #886519",
"R. c #936B1B",
"E. c #926A17",
"W. c #944428",
"Q. c #98592A",
"!. c #8C6826",
"~. c #956B25",
"^. c #997529",
"/. c #9E7C31",
"(. c #A07E30",
"). c #A91B45",
"_. c #A52944",
"`. c #B62856",
"'. c #BE2163",
"]. c #CE2D78",
"[. c #847B7B",
"{. c #887E7F",
"}. c #897867",
"|. c #B0454B",
" X c #B3943F",
".X c #A8883A",
"XX c #B89840",
"oX c #94867B",
"OX c #6E4C81",
"+X c #784F80",
"@X c #795181",
"#X c #77568C",
"$X c #795587",
"%X c #7B5B93",
"&X c #6D6C82",
"*X c #747384",
"=X c #74748A",
"-X c #7B7A8B",
";X c #7A7786",
":X c #7A7B92",
">X c #736B8A",
",X c #D73984",
"<X c #E52F98",
"1X c #805F99",
"2X c #816199",
"3X c #847F88",
"4X c #8967A4",
"5X c #8968A3",
"6X c #DC4889",
"7X c #F471AD",
"8X c #F04DAA",
"9X c #8B8382",
"0X c #958B88",
"qX c #878798",
"wX c #969397",
"eX c #979293",
"rX c #A49A94",
"tX c #A19286",
"yX c #AAA29D",
"uX c #9394A1",
"iX c #ACA5A3",
"pX c #B3ABA6",
"aX c #BDB6B3",
"sX c #FDA5B1",
"dX c #DB9FB0",
"fX c #C5C0BD",
"gX c #CECACA",
"hX c None",
/* pixels */
"hXhXhXhXhXhXhXhXhXhXhXhXhXhXhXhXhXhXhXhXhXhXhXhXhXhXhXhXhXhXhXhXhXhXhXhXhXhXhXhXhXhXhXhXhXhXhXhXhXhXhXhXhXhXhXhXhXhXhXhXhXhXhXhX",
"hXhXhXhXhXhXhXhXhXhXhXhXhXhXhXhXhXhXhXhXhXhXhXhXhXhXhXhXhXhXhXhXhXhXhXhXhXhXhXhXhXhXhXhXhXhXhXhXhXhXhXhXhXhXhXhXhXhXhXhXhXhXhXhX",
"hXhXhXhXhXhXhXhXhXhXhXhXhXhXhXhXhXhXhXhXhXhXhXhXhXhXhXhXhXhXhXhXhXhXhXhXhXhXhXhXhXhXhXhXhXhXhXhXhXhXhXhXhXhXhXhXhXhXhXhXhXhXhXhX",
"hXhXhXhXhXhXhXhXhXhXhXhXhXhXhXhXhXhXhXhXhXhXhXhXhXhXhXhXhXhXhXhXhXhXhXhXhXhXhXhXhXhXhXhXhXhXhXhXhXhXhXhXhXhXhXhXhXhXhXhXhXhXhXhX",
"hXhXhXhXhXhXhXhXhXhXhXhXhXhXhXpXhXhXhXhXhXhXhXhXhXaXoXhXhXhXhXhXhXhXhXhXhXrXeXhXhXhXhXhXhXhXhXhXhXhXhXhXhXhXhXhXhXhXhXhXhXhXhXhX",
"hXhXhXhXhXhXhXhXhXhXhXhXhXhXiXy aXhXhXhXhXhXhXpXe.d i hXhXhXhXhXhXhXhXhXhXe.* D oXhXhXhXhXhXhXhXw.k.hXhXhXhXhXhXhXhXhXhXhXhXhXhX",
"hXhXhXhXhXhXhXhXhXhXhXhXhXhXw.*XoXhXhXhXhXhXe.n b F hXhXhXhXhXhXhXhXhXhXhXhX}.Z Z S oXhXhXhXhXhXH.s.hXhXhXhXhXhXhXhXhXhXhXhXhXhX",
"hXhXhXhXhXhXhXhXhXhXhXhXhXiX9.qXk.aXhXhXhXS v R.Z 0XhXhXhXhXhXhXhXhXhXhXhXhXhXS R.Y.d }.hXhXhXH.-X-Xw.hXhXhXhXhXhXhXhXhXhXhXhXhX",
"hXhXhXhXhXhX9XgXhXhXhXhXhXiX| a.Z.G.iXhXl B T.E.D hXhXhXhXyX}.n M D rXhXhXhXhXtXZ R.T.d wXhX[.F.p.a.w.hXhXhXhXhXhX0XhXhXhXhXhXhX",
"hXhXhXhXhXgXt oXhXhXhXhXhXiXE 5.Q B.u.A N V E.U.}.hXhXyXF v I.Y.E.T.v M e.hXhXiXn E.C B c <.S.r.Q 5.1.hXhXhXhXhXhX4.{.hXhXhXhXhX",
"hXhXhXhXhX{.j.D.eXhXhXhXhXfXE | q y u i N B V T.a u a V Y.E.^.(././.R.R.Y.v u 7 M T.B M c 7 t q E } k.hXhXhXhXhXk.;X<.hXhXhXhXhX",
"hXhXhXhXhX3X5.uXA.H.rXfXhXhX1.9 7.9 1.d m s C C s a T./.E.^..X X X X/.R.^.^.m i N V m f n l P t 1.> pXhXhXhXoXs.qX;Xt hXhXhXhXhX",
"hXhXhXhXhX9XK -X&X>XZ.s.w.2.q.Z.F.5.4 a m h M N p B C T.E.~..X X X X/.R.Y.V B f s C p p m - P a.F.a.w.2.q.a.&X&X*Xj.y hXhXhXhXhX",
"hXhXhXhXhXhX0 N.s.r.i.W 1.a.S.a.u.u.8 - N h h p f L._.J.Y.E.^./././.R.E.I.K._.N p p j f s 3 3.s.u.N.F.7.t 9.y.r.Z.} {.hXhXhXhXhX",
"hXhXhXhXhXhX1.4.a. .9 7.F.a.6.6.u.s.3.$ s s j j n _.<X'.J.I.E.E.E.E.E.U._.<X].g p j h m - 9 u.s.9.9.u.Z.a.t H y.a.q hXhXhXhXhXhX",
"hXhXhXhXhXhXpXq a.t 4 Z.a.6.k.*X5.6.u.K 7 m p j f _.8X7X`.J.V I.V I.N P.6X7X].J.p j f s 6 3.u.5.a.-X6.u.Z.7.= y.| 2.hXhXhXhXhXhX",
"hXhXhXhXhXhXhX1.6 <.P P u.u.p.wX*X8. .! q - i & f L.].sXsX'.K.p p z _.6XsX7X`.N p i i 4 K | | j.wX;X9.p.6.r <.k 4 hXhXhXhXhXhXhX",
"hXhXhXhXhXhXhXpXu &Xa.! ! 9.} *XuX3XD.p.P 7.0.$ s Y.|.,X,X'.K.N B J.).].,X].Q.M & u u.! 5.N.;XqXqXu.4.6.K 6.&X9.A hXhXhXhXhXhXhX",
"hXhXhXhXhXhXhXeXs.d.u.p.3.K q 6.:X=X&X-X&XF.A.} & f ~.Q.J.J.Q./.^.^.W.W.W.~.I.i 5 y.G.F.=X=X&X:XS.I r L 9.a.u.S.k.hXhXhXhXhXhXhX",
"hXhXhXhXhXhXhX0.d.F.u.r.y.W q L B.>XN.N.j.j.j.5.e & p D N b R.^.^.^.V B B f i $ Q y.j.j.N.j.D.*X5.q r 5.u.6.Z.F.6.0XhXhXhXhXhXhX",
"hXhXhXhXhXhX0X8.i.qX-Xp.5.L H 8 K Z.&XN.N.k.N.8.E % & j f C B C V B C B h j % 9 | s.Z.j.N.A.&X6.9 q K ~ r.Z.wX&Xr.2.hXhXhXhXhXhX",
"hXhXhXhXhXhX1.a.| *XwXqX-XF.u.P L ! y.N.k.N.N.p.} u m h !.I.I.C N T.C !.z s c w 8.d.N.j.A.p.4.L L 7.Z.*XqXqXqX9.r.9.hXhXhXhXhXhX",
"hXhXhXhXhXhX0.a.| 8.:X:X-XqX3X-X*XS.N.k.j.N.k.j.5.a d a !.l ^.m p T.F S I.; d t j.N.j.k.j.A.Z.&X*X-XqX:X=XqXS.Q 9.a.2.hXhXhXhXhX",
"hXhXhXhXhXeX6.p.5.Q S.:XS.S.N.N.A.A.A.A.A.A.A.A.a.1.u ; h $ s x > p p & s 7 y 0.A.A.A.A.A.Z.Z.F.Z.Z.N.S.*X=X8.{ u.p.<.hXhXhXhXhX",
"hXhXhXhXhXk.9.u.u.| 5.&X=XS.j.i.W t t t t t t t t K 8 + 3 3 + 3 9 @ % 4 @ = r t t t t t t t t t 8.j.Z.&X>Xa.Q 6.s.u.4.hXhXhXhXhX",
"hXhXhXhXhX<.p.6.u.6.Q r.&XF.j.t : > : : : : : : 3 % : : , , > o O > > > > : : > % : : : : : : , 3 8.A.*Xd.| | u.r.r.u.{.hXhXhXhX",
"hXhXhXhXhXW r.4.5.5.} E 9.N.t > ' G ^ ' ^ ' ' ' ' ' ' ^ I ^ ' ,   ^ ^ ^ ' ' ' ' ' ' ' ' ' ' ^ G e > 9.a.Q Q 4.5.3.5.7.H.hXhXhXhX",
"hXhXhXhXhXA 3 9 5 5 5 5 3 % > +.OXv.x.O.O.O.O.O.O.O.O.%.O.t.OXH . v.v.+.O.O.O.O.O.O.O.O.O.g.OXv.n.T % = 4 6 5 5 9 6 # hXhXhXhXhX",
"hXhXhXhXhXhXq y.4. .5.9.9 + { #X%X%X%.R ( R ( R Q ^ ( R T OX4X{ X 2X1X] T ( R ( R ( R R R ( OX2X%Xv.$ o 3.y.3.4.8.4.6 hXhXhXhXhX",
"hXhXhXhXhXhXI Z.s.j.a.f.9 + { #X%XO...b.c.c.c.c.c.x.c.c.%.OX4X .X 2X%X$.l.c.c.c.c.b.b.c.b.l.) v.2Xv.3 = 8.Z.a.a.a.g.k hXhXhXhXhX",
"hXhXhXhXhXhX} F.j.N.j.f.9 + { %Xn.O.V.+XV.+X+X+X+X+X+X+Xt.OX4X{ X 1X%X$.b.@XV.V.+X+X+X@XM.@Xh...%Xc.< # 5.S.j.j.k.d.t hXhXhXhXhX",
"hXhXhXhXhXhX| S.a.j.j.a.9 + ) %X-.x.+Xm.V.m.+XV.m.+X+X+X+.OX4X{ X 1X%X$.c.+XV.V.m.+Xm.m.+Xm.m.+.#Xb.$ # 6.Z.j.j.d.f.W hXhXhXhXhX",
"hXhXhXhXhXhX} &Xp.j.j.a.9 + ) %X,.h.+X+Xm.M.c.m.M.+XM.@X$.OX4X .X 1X1X+.z.M.M.M.M.z.m.M.m.+Xm.+.#Xv.> # 5.S.j.j.a.d.k hXhXhXhXhX",
"hXhXhXhXhXhX5.&Xa.a.a.f.9 + { %X,.l.+X+X+Xm.-.,.V.+Xm.m.$.OX4X .X 1X%X$.c.M.M.M.b.#.z.M.+X+Xm.+.#Xv.< # 5.Z.p.a.Z.S.E hXhXhXhXhX",
"hXhXhXhXhXhX5.&Xs.k.j.f.9 + { %X,.h.+Xm.m.z.o.#.m.m.+XM.$.OX4X{ X 1X%X$.c.M.M.M.,.&.-.m.M.+Xm.+.#Xv.< # 5.S.j.k.Z.Z.K hXhXhXhXhX",
"hXhXhXhXhXhX5.&Xa.A.j.a.9 + { %Xl.h.+XM.m.-.&.o.,.m.OX+X$.OX4X} X 1X%X$.c.M.m.m.#.o.o.z.M.m.m.+.#Xx.< # 8.Z.j.j.Z.d.L hXhXhXhXhX",
"hXhXhXhXhXhX4.&Xj.j.j.d.9 + { #X,.l.m.C.z.o.o.o.-.b.M.M.t.OX4X{ X 1X%X$.c.+XM.,.o.&.&.-.m.m.m.+.#Xv.< # 6.Z.j.j.Z.B.E hXhXhXhXhX",
"hXhXhXhXhXhX4.&Xj.j.N.a.9 + { %X,.h.@Xm.-.&.&.&.o.,.m.M.$.OX4X{ X 1X%X$.c.+Xm.=.&.;.&.o.z.V.m.+.#Xv.> # 5.Z.j.j.Z.B.k hXhXhXhXhX",
"hXhXhXhXhXhX5.&Xj.j.j.p.9 + { %X,.l.@Xz.o.o.*.&.o.=.m.m.$.OX4X{ X 1X%X$.c.+X,.o.*.*.&.o.-.m.m.+.#Xv.< # 6.Z.j.j.Z.d.W hXhXhXhXhX",
"hXhXhXhXhXhX5.F.j.N.j.f.9 + ) %X>.h.V.-.o.&.=.&.&.o.l.@X$.OX4X .X 1X%X$.c.m.#.o.*.#.*.o.o.z.V.+.#Xv.< = 5.S.j.N.Z.d.W hXhXhXhXhX",
"hXhXhXhXhXhX3.D.s.i.p.d.9 + { #Xl.l.b.o.o.*.o.*.&.o.#.m.$.OX4X{ X 1X%X$.b.,.o.*.*.o.=.=.o.-.m.+.#Xv.> # 5.Z.i.i.N.d.E hXhXhXhXhX",
"hXhXhXhXhXhX .S.p.d.p.u.8 + { %X,.h.-.o.o.*.*.o.=.&.o.,.t.OX4X{ X 1X1X$.z.*.o.*.o.*.#.*.&.;.l.$.#Xc.< # 4.a.p.d.a.f.W hXhXhXhXhX",
"hXhXhXhXhXhX} u.D.;Xa.3.4 + { %X,.h.,.o.o.=.o.=.;.&.;.l.$.OX5X| o 1X%X#.z.>.o.*.#.&.*.*.o.@.z.+.#Xv.< = L r.F.=Xp.6.L hXhXhXhXhX",
"hXhXhXhXhXhXP 5.p.D.u.! 8 + ) %X,.h.M.@.*.=.o.o.&.&.-.V.+.OX5X{ o 1X1X+.b.z.o.*.*.*.&.*.o.,.V.+.#Xv.3 o L 5.N.Z.6.5.W hXhXhXhXhX",
"hXhXhXhXhXhX .5.! s.L 4.u + { %X,.l.+X,.o.*.*.*.&.o.z.+X$.OX4X{ X %X%X$.z.M.-.*.*.=.=.&.#.b.m.%.#Xv.< = 3.P 4.u.K r.W hXhXhXhXhX",
"hXhXhXhXhX[.} p.6.6.6.9.q + ) %X,.l.@Xb.#.&.*.*.o.-.m.+X$.OX4X .X 1X1X$.c.+Xz.#.&.*.&.o.,.+Xm.+.#Xv.> = | r.7.7.9.p.W hXhXhXhXhX",
"hXhXhXhXhX[.} p.j.N.p.9.9 + ) %X,.h.+XM.,.o.&.o.o.z.V.V.$.OX4X{ X 1X%X$.m.C.m.#.o.&.o.@.b.+Xm.+.#Xv.> = | y.N.Z.i.y.W hXhXhXhXhX",
"hXhXhXhXhX[.3.p.s.j.i.y.9 + { %X,.h.+XM.b.=.o.&.-.m.V.V.$.OX4X .X 1X%X#.z.M.C.z.o.o.o.,.M.+Xm.+.#Xc.< # 5.a.a.a.y.u.W hXhXhXhXhX",
"hXhXhXhXhX[.} p.u.p.u.y.8 + { %X,.l.m.m.M.,.&.o.z.+Xm.+X$.OX4X{ X 2X%X$.c.@X+Xm.-.o.#.b.V.m.m.+.#Xn.> # 4.i.s.p.u.i.E hXhXhXhXhX",
"hXhXhXhXhX[.} p.u.s.u.y.9 + ) #X$.,.x.c.M.b.&.-.m.m.m.+X+.v.4X{ X %X%XO.c.m.m.@Xb.o.,.V.m.l.x.#.$Xx.< #  .p.u.u.y.u.W hXhXhXhXhX",
"hXhXhXhXhX[.} u.u.s.u.y.9 + { $XO.%.x.x.c.b.$.x.b.b.c.b.O.l.1XQ X #X$X' z.b.x.b.b.$.x.b.x.x.z.` m.v.< # 4.p.u.u.r.r.L hXhXhXhXhX",
"hXhXhXhXhX[.} i.u.u.6.y.9 + { V...X.x.t.l.x.t.t.l.t.t.l.] >.$XR X @XV.) $.l.t.t.l.t.x.x.t.t.,.' x.n.< # 4.u.u.p.r.y.L hXhXhXhXhX",
"hXhXhXhXhX{.! y.5.r.| y.9 + { c.) ` #.-.-.-.$.=.-.-.-.-.` t.v.H o x.x.) @.-.-.-.;.@.-.$.&.=.o.R t.l.< # 5.8. .u.8.8.k hXhXhXhXhX",
"hXhXhXhXhX[.I y. .5.| 8.9 + / -.( / X.X.X.X.X.] :.@.X.X.T ..n.J . -.$.R _ X.X.o.X.X.X.X.X.X.X.^ O.-.< # 4.8.5. .| 8.k hXhXhXhXhX",
"hXhXhXhXhX[.H 9. .r.4.9.q @ / o.^ / [ [ ` [ [ / / ] / ] R :.=.1   o.@.H / / [ ` / / ` ` / [ [ R X.&.< # 4.9.5.5.| 8.0 hXhXhXhXhX",
"hXhXhXhXhX{.H 9.5.8.4.8.9 @ ^ X.^ ^ [ ` / [ [ [ ` / [ ] ^ ` X.1   _ :.^ / [ [ [ [ [ [ ` [ [ [ R :.X.> #  .5.8.8.5.5.w hXhXhXhXhX",
"hXhXhXhXhX[.H 5.5.8.4.5.q @ R ] R R / [ / / [ / [ [ [ [ R ] ] 1   _ ] T / / / / [ [ / / / / [ R ] ] 5 o | 5.8.5.| 5.k hXhXhXhXhX",
"hXhXhXhXhX{.H 3.3.g.4.| 8 + R X.^ ..#...O.O.O.O.O.O...O.` ] X.1   / X.' O.O.O.O.....O.O.+.....) ` ] < = P  .8.8.} | t hXhXhXhXhX",
"hXhXhXhXhX[.q 3.P | { ! 4 + R ] X.#.#.#.#.#.#.#.#.#.#.#.#.X.X.1   [ X.X.#.#.@.@.#.#.#.#.#.#.#.#.X.] < # P  .| | K P 0 hXhXhXhXhX",
"hXhXhXhXhXoX: L H E E ! 4 5 U U Y U U U U U Y Y Y U U U U Y R ,   U Y Y Y U T T T T T T Y Y U U T T e = r Q H w t q = hXhXhXhXhX",
"hXhXhXhXhXhXhXhXhXhXhXhXhXhXhXhXhXhXhXhXhXhXhXhXhXhXhXhXhXhXhXhXhXhXhXhXhXgXhXhXhXhXhXhXhXhXhXhXhXhXhXhXhXhXhXhXhXhXhXhXhXhXhXhX",
"hXhXhXhXhXhXhXhXhXhXhXhXhXhXhXhXhXhXhXhXhXhXhXhXhXhXhXhXhXhXhXhXhXhXhXhXhXhXhXhXhXhXhXhXhXhXhXhXhXhXhXhXhXhXhXhXhXhXhXhXhXhXhXhX",
"hXhXhXhXhXhXhXhXhXhXhXhXhXhXhXhXhXhXhXhXhXhXhXhXhXhXhXhXhXhXhXhXhXhXhXhXhXhXhXhXhXhXhXhXhXhXhXhXhXhXhXhXhXhXhXhXhXhXhXhXhXhXhXhX",
"hXhXhXhXhXhXhXhXhXhXhXhXhXhXhXhXhXhXhXhXhXhXhXhXhXhXhXhXhXhXhXhXhXhXhXhXhXhXhXhXhXhXhXhXhXhXhXhXhXhXhXhXhXhXhXhXhXhXhXhXhXhXhXhX"
};
