/* XPM */
static char *c09f4c0e229a4e2cfff21b690d46c7785gf6SLbyXNnQgYVq[] = {
/* columns rows colors chars-per-pixel */
"64 64 224 2 ",
"   c #363737",
".  c #3C3A36",
"X  c #363738",
"o  c #373838",
"O  c #3C3C3A",
"+  c #453D2E",
"@  c #423E36",
"#  c #423E3B",
"$  c #3F413F",
"%  c #7F611E",
"&  c #4D452F",
"*  c #51472F",
"=  c #55492E",
"-  c #5A4C2C",
";  c #464134",
":  c #4C4433",
">  c #44423B",
",  c #4B4539",
"<  c #4E493C",
"1  c #504733",
"2  c #524936",
"3  c #534B3B",
"4  c #5A4E38",
"5  c #6A5627",
"6  c #6E5927",
"7  c #65532A",
"8  c #6A5629",
"9  c #6D592A",
"0  c #725B25",
"q  c #795F25",
"w  c #735D2C",
"e  c #665634",
"r  c #765E31",
"t  c #705D38",
"y  c #7C6224",
"u  c #79632D",
"i  c #6D6133",
"p  c #766134",
"a  c #7A6236",
"s  c #766038",
"d  c #7D6539",
"f  c #424441",
"g  c #474C44",
"h  c #4B4C43",
"j  c #524E40",
"k  c #4D5149",
"l  c #545549",
"z  c #535A55",
"x  c #585B57",
"c  c #5A605A",
"v  c #76714F",
"b  c #48457D",
"n  c #57557D",
"m  c #6A5A73",
"M  c #6A756C",
"N  c #717B6F",
"B  c #62627C",
"V  c #717D71",
"C  c #84661E",
"Z  c #8E6C1D",
"A  c #916F1D",
"S  c #95711C",
"D  c #9C751A",
"F  c #9D791A",
"G  c #A37916",
"H  c #A07718",
"J  c #A47B1A",
"K  c #A97E1D",
"L  c #826624",
"P  c #896B2A",
"I  c #916F27",
"U  c #947124",
"Y  c #997421",
"T  c #9B7829",
"R  c #816736",
"E  c #846936",
"W  c #8D6E36",
"Q  c #816738",
"!  c #846B3B",
"~  c #8C6E38",
"^  c #8D713A",
"/  c #937234",
"(  c #9C7730",
")  c #91733A",
"_  c #A27D23",
"`  c #A97F25",
"'  c #A57C2C",
"]  c #A57D33",
"[  c #866F40",
"{  c #8A7445",
"}  c #827A59",
"|  c #8F7668",
" . c #876D7F",
".. c #8A6F7E",
"X. c #8B707F",
"o. c #7A8677",
"O. c #A6811C",
"+. c #AC811F",
"@. c #AC8224",
"#. c #A88429",
"$. c #AD852A",
"%. c #B38526",
"&. c #B48827",
"*. c #B48629",
"=. c #B6892B",
"-. c #BC8B2E",
";. c #AA8136",
":. c #A78933",
">. c #AD8C33",
",. c #A98138",
"<. c #B58B33",
"1. c #BD8D32",
"2. c #B3883D",
"3. c #BD8E39",
"4. c #AF933B",
"5. c #BD9132",
"6. c #BE913B",
"7. c #C08F34",
"8. c #C49236",
"9. c #C5943A",
"0. c #C6983F",
"q. c #988951",
"w. c #998B54",
"e. c #A28B4B",
"r. c #B99844",
"t. c #BC9F4D",
"y. c #A6955C",
"u. c #BEA04E",
"i. c #BBA75A",
"p. c #878668",
"a. c #9A9368",
"s. c #86917D",
"d. c #9D9A74",
"f. c #A59C6A",
"g. c #A4817C",
"h. c #BBAC62",
"j. c #B4A86B",
"k. c #BCB26C",
"l. c #AAA673",
"z. c #BEB775",
"x. c #C19641",
"c. c #C69A43",
"v. c #C59E4B",
"b. c #C29F50",
"n. c #C6A14E",
"m. c #C8A24E",
"M. c #C4A353",
"N. c #C9A655",
"B. c #C9A758",
"V. c #C3A95C",
"C. c #CAAA5B",
"Z. c #C3AD62",
"A. c #CBAD62",
"S. c #C8B268",
"D. c #CCB46B",
"F. c #C9B873",
"G. c #C3BD7C",
"H. c #CDBE7B",
"J. c #C6C07F",
"K. c #CEC17F",
"L. c #D1C07B",
"P. c #525185",
"I. c #545289",
"U. c #4E4A91",
"Y. c #524E91",
"T. c #655B8C",
"R. c #736D8D",
"E. c #766991",
"W. c #886F81",
"Q. c #97788A",
"!. c #9C7D91",
"~. c #7F8E80",
"^. c #7E85B2",
"/. c #859484",
"(. c #8C9884",
"). c #8B9C8B",
"_. c #929D87",
"`. c #94A28B",
"'. c #93A593",
"]. c #97AA97",
"[. c #9AAC97",
"{. c #ACB48C",
"}. c #A1B49C",
"|. c #828AB6",
" X c #9781B7",
".X c #A2B7A1",
"XX c #A8A2B0",
"oX c #B2C6A9",
"OX c #B9D3B9",
"+X c #C4C385",
"@X c #CDC383",
"#X c #C9C78B",
"$X c #D0C585",
"%X c #D0C789",
"&X c #D1C98B",
"*X c #CBCA94",
"=X c #D2CD92",
"-X c #CAD49F",
";X c #D2D097",
":X c #D3D39A",
">X c #CCD9A6",
",X c #D4D9A5",
"<X c #C6DDBB",
"1X c #D7E0AE",
"2X c #CEE1B6",
"3X c #D4E3B4",
"4X c #D4E6BA",
"5X c #D8E7BA",
"6X c #D6E8BD",
"7X c #D8E8BC",
"8X c #ABBCDF",
"9X c #C2DEC1",
"0X c #C9D6DF",
"qX c #C9E5C5",
"wX c #D4ECC7",
"eX c #D9ECC2",
"rX c #D5F1CC",
"tX c #D9F2CB",
"yX c #D5F4D4",
"uX c #DAF6D2",
"iX c #D7F8D7",
"pX c #DBF9D5",
"aX c #DCFDDB",
"sX c #DEFFE0",
/* pixels */
"F.5.@.O.=.5.&.+.=.5.@.O.$.=.@.D F D D D O.S i < $ < g l u O.O.F F F F O.F F i < g g g g u F F D #.<.#.F @.5.&.O.&.5.=.+.&.5.&.O.",
"Z.%.&.&.%.%.%.&.%.&.%.%./ a U D L 7 7 5 % O.a.'.'.'.'.`.q.D % 7 7 7 7 6 % O.w.`.'.'.'.`.w.F C 7 8 t 9 6 P *.&.*.%.%.%.*.&.%.&.*.",
"i.+.-.1.%.K =.-.@.F *.;.e : y D 9 > f 3 u >.#XiXiXiXiXwXk.O.p f $ ; > 3 u :.+XyXiXpXpXrXz.#.u < g > $ $ 7 S @.<.*.K %.1.*.K %.5.",
"S.*.%.%.*.*.%.#.L 7 t t , . y D P [ a.'.{.#X6XiXaXaXaXrXL.<.a.`.p.E p.].{.+X2XiXaXaXaXpX#X<.y.'.'.).M $ : 7 9 s / %.%.%.%.*.%.%.",
"D.1.%.K =.1.@.S e g > . . , L +.<.n.*XrXuXpXuXuXiXiXpXwXK.N.&X4XJ.m.#XwXiXiXuXuXpXpXpXtX%XM.@XwXrXqX(.f . ; . ; r 2.*._ %.7.*.K ",
"r.$.*.*.%.` y t p./.x O e ~ ' <.S.=X%X%X5XpX,X&X3XpX,X$X&X=X%X$X&X=X%X&X3XiX1X&X3XpX3X$X&X=X&X@XG.k.v > * 8 - . 2 r / %.&.%.%.*.",
"%.+.=.1.` S e x .XqXV ; ~ 6.9.n.=X5XH.B.:XeX$XN.:X6XL.n.&X5XH.n.%X7X$XN.=XeX$XN.=XeX@Xv.$X5X@Xx.*.J w ; 8 A 6 ; O @ a <.=.K %.7.",
"-.*.&.` L t p.[.qXqXo.; W 0.F.=XG.G.@X&X%X$X&X&X&XK.u.&.V.H.u.&.u.z.J.=X&XK.&X=X%XK.M.=.M.H.u.*.+.G Z 0 6 8 p d 4 # w ` &.%.%.%.",
"8.-.` I - k }.yXaXqXo.2 ) M.;X3Xh.>.#X5XF.m.&X7XH.9.%.K =.8.*.K O.#.J.7XL.m.%X7X$X0.*.K *.8.*.K J G H S 6 1 Q ] E 1 9 Y ` 3.*.K ",
"%.` L 7 @ k .XaXsXrXd.{ j.=XJ.k.r.1.Z.H.C.9.D.H.n.%.*.&.%.%.%.*.&.=.i.L.C.0.C.H.M.%.%.*.%.%.*.*.K G L 6 6 0 r t Q E r 8 9 t / %.",
"J S - O # x .XaXsXrXH.u.*X2Xh.@.=.8.8.c.9.9.0.8.*.K &.7.%.K %.7.8.8.9.9.9.9.9.8.*.+.*.1.*.K %.1.%.J 6 + 7 A w 2 t ,.! , # # r <.",
"%.' e f V [.9XaXaXyX1X*X[.s.e.*.7.8.8.8.8.8.9.7.-.*.%.%.%.%.%.%.5.8.8.8.8.9.9.8.1.*.%.%.%.*.%.%.K J 6 @ 1 7 r Q E r Q Q 4 @ 9 ' ",
"*.,.e k [.rXuXaXaXpXuX<Xp.3 ~ 3.9.8.8.7.9.8.8.8.8.8.%.+.-.7.%.K =.8.9.8.9.8.9.8.9.8.%.+.*.8.*.K J S 6 @ # # R ] ! 2 Q ] E : 7 S ",
"w t , h a.=XeXaXsXpX,XG.q.0 w d ] 8.1.%.7.8.9.8.8.8.-.%.7.8.7.%.7.8.-.*.7.8.9.8.8.8.-.*.-.8.1.%.I 6 1 . 4 [ Q r d E Q t r q 6 9 ",
"# . X , ) m.:XtXuX7XF.2.` A - 2 W 7.%.K =.8.c.c.9.9.9.c.9.9.8.8.8.8.&.K %.8.9.0.9.9.9.0.9.8.8.3.E @ . @ r ] Q 2 t ] E 1 7 A 0 @ ",
"z o X , / c.D.$XG.k.q.s 9 7 ; > ~ 8.-.&.7.9.D.$XC.c.D.$XC.9.8.8.8.8.-.&.7.8.D.$XA.c.D.$XD.8.9.8.Q @ 4 Q Q t Q ! Q Q r 0 6 7 = . ",
"B X X , / 8.9.3.*.U 7 ; ; . # , / 8.8.8.9.m.;X7XL.m.&X7XH.9.8.8.8.8.8.6.9.v.&X7X%XM.%X5X$X0.7.1.E : t ] E 2 r 2.E 2 8 A 0 @ @ . ",
"n X X ; P *.%.` L 5 9 0 0 w u E ,.8.*.<.Z.&X&X@X&X=X&X$XC.9.7.%.-.8.=.=.V.&X&X$X%X&X&X$XC.8.-.%.I 0 r Q Q ! Q t r 6 0 6 6 6 = . ",
"P.$ O @ q D H U 7 & y D D F >.0.9.8.*.>.#X7XK.N.;X7XH.0.9.8.%.K =.8.*.>.J.7X$XN.&X7X$Xc.9.8.%.K J D 0 # t ] Q 1 8 I 0 + 7 A 6 @ ",
"|./.z . - 5 5 5 6 q A F % p f.$XC.c.Z.G.+X$X&X&X&XL.N.9.8.8.7.&.7.9.Z.G.@X$X&X&X&X$XC.0.8.8.7.%.K J 0 @ 4 t Q R r 9 6 6 6 5 1 # ",
"8XOXV $ O . > 3 u S D S 7 j }.5XF.c.&X5XK.N.;X5XL.0.9.8.9.8.8.8.8.0.%X5X$XN.&X7X$Xc.9.9.9.8.8.8.%.J 6 @   @ t 2.R 1 8 A 6 @ . # ",
"^./.).~.z f V /.v 8 5 6 r ! j.K.B.c.D.$X&X&X&X@XN.8.9.9.9.8.8.8.8.9.A.%X&X&X&X$XC.8.9.9.8.9.8.8.*.H 6 @ X . 4 r Q R r 9 = @ * 9 ",
"I.c .XOXV x .X9Xo.f # : W 8.c.c.0.8.8.n.;X5XH.0.8.8.8.8.8.8.7.7.8.8.9.c.&X5XL.c.9.8.9.7.8.8.8.7.*.H 0 @ . . . @ a ] R ; . . 7 A ",
"|.).)./.).'.9XyXoX/.z ; ~ c.D.@Xn.*.7.9.D.K.B.8.8.8.7.%.7.8.7.%.%.&.-.0.A.$XC.9.8.8.7.*.-.8.-.%.K J Z 6 * . 1 9 r d r 0 = @ 9 S ",
"8XOXN x }.uXpXaXpX9XV 4 ) M.:X3Xi.@.=.9.9.0.9.9.8.7.%.K -.7.%.K J +.=.8.9.0.9.8.8.8.%.K *.7.*.K G H D S 6 ; 8 Z 0 : 9 A 9 @ 5 Y ",
"^./.} { oXaXaXaXsXwXd.{ j.&X&XK.u.=.5.8.9.9.9.8.7.%.%.%.%.%.%.%.%.&.7.8.9.9.9.8.-.%.%.*.*.%.%.%.+.G Z 0 6 0 6 5 9 6 6 9 = . 9 S ",
"P.3 / v.,XaXaXaXaXtXF.c.#X2XL.n.9.8.8.8.9.9.8.8.%.K %.7.%.K %.7.8.8.8.8.8.9.9.8.%.K *.7.%.K %.7.%.D 0 ; 7 Z 0 : 9 A 0 + . . 7 A ",
"b , / M.,XaXaXaXsXwXS.2.a.`.{.K.C.9.8.9.8.9.9.8.7.%.%.%.%.%.%.%.-.8.9.8.8.9.8.8.7.*.%.%.%.*.%.%.+.G 6 @ : 5 6 6 5 5 5 6 - . & 7 ",
"b , / m.:XpXpXaXpX4Xi.S 9 l [.2XF.9.8.8.8.8.8.8.7.7.%.K *.7.%.K -.8.8.8.8.8.8.8.8.8.=.K *.7.*.K G D 5 @ . ; 5 A 0 : 8 Z 0 @ . . ",
"b ; / c.D.=XeXuX-Xk.4.F % p p.s.y.8.-.=.7.8.8.8.8.8.7.*.7.8.7.%.7.7.7.%.7.8.8.8.8.8.-.*.-.8.-.%.I 9 * . 1 8 6 5 5 6 6 0 5 9 = . ",
"b , ~ 3.9.N.,X4Xh.#.F F D A e < / 7.%.K =.8.9.0.9.9.9.9.9.9.8.8.7.7.%.G -.9.0.0.9.8.9.0.9.9.9.1.E @ . @ 8 Z 0 : 9 Z 0 : 7 Z 0 @ ",
"n # e E ] c.D.H.r.D % 6 6 8 ; $ ~ 8.-.*.7.8.D.$XB.0.D.$XB.9.8.9.8.8.7.%.7.9.D.L.A.c.A.$XA.9.8.3.d # 4 a a 0 w d w 9 5 6 6 5 = . ",
"B . . 3 ) 7.0.6.%.A 7 + @ @ # , / 8.8.8.8.m.=X7XH.m.&X7XH.9.8.8.8.8.8.8.9.c.&X6X$Xn.%X5X$X0.7.7.R : r ] Q 2 t ] E 2 9 A 0 + @ X ",
"n X X ; P %.%.@.P 6 5 6 6 6 r E ;.8.=.<.A.&X&X%X&X&X&X$XB.8.7.%.7.8.-.=.V.%X&X&X&X&X&X$XA.8.7.%.I 0 r Q Q Q Q Q r 9 6 6 5 9 = . ",
"P.O o ; y D F S 7 : q D D D <.9.9.8.*.>.#X5XL.B.=X7XL.c.9.8.%.K &.7.&.$.J.5X%XN.&X7X$Xc.9.8.*.G H D 0 , t ,.E 1 9 Z 0 : 7 A 6 @ ",
"^./.z . - 9 6 6 5 0 A D C a f.K.B.x.V.G.@X%X&X%X&X$XN.9.8.8.7.&.7.9.B.G.+X%X&X%X&X%XC.9.9.9.7.%.K H 5 # 4 a Q Q r 9 5 5 0 5 = # ",
"8XOXV O O O > 3 y D D A 7 l [.5XF.c.=X7XH.B.;X5XH.c.9.9.8.8.8.8.8.0.%X5X@XN.&X7X$Xc.0.9.9.8.8.8.*.H 0 . . @ t ,.R 1 8 A 6 @ . > ",
"^.).).~.z $ M s.v 6 5 0 r [ j.H.N.c.D.&X%X%X&X$XC.9.8.9.8.8.9.8.8.0.A.%X&X%X&X%XA.9.9.9.8.8.8.8.*.G 6 . X . 4 a Q d r 9 = . : 9 ",
"I.x .XOXV z .XOXo.> @ , W 8.c.c.9.8.9.n.=X5XH.0.9.8.8.9.8.8.8.8.8.8.8.n.&X5X@Xc.9.8.8.8.8.8.8.8.*.H 0 @ o . O ; a ] R : . . 5 A ",
"^.).).)./.'.9XyXoX~.z ; W c.D.H.M.=.1.9.D.$XC.8.8.8.7.%.7.8.-.%.&.*.-.9.D.$XA.9.9.8.-.%.7.8.-.%.` G Z 6 * . * 8 r d w 9 = @ 8 S ",
"8XOXV c .XuXpXaXiX9XV 2 ) v.;X5Xi.@.=.9.9.c.9.9.8.7.%.K &.7.%.K J K =.8.9.0.9.9.8.8.%.K *.8.%.K G G D S 5 ; 8 Z 0 , 8 Z 5 @ 5 S ",
"^.(.v { oXaXaXaXsXwXd.{ j.&X%X$Xu.*.1.8.8.9.9.8.-.%.%.%.%.%.%.%.&.%.7.8.8.8.9.8.7.%.%.%.%.%.%.%.+.G Z 0 6 6 6 0 0 5 0 6 = @ 8 F ",
"P.j ) v.,XaXaXaXaXtXF.r.*X4XG.v.0.8.8.8.8.9.9.8.%.K &.7.%.K %.7.8.8.8.8.9.9.8.8.%.K %.7.%.K %.1.%.F 0 ; 8 Z 0 ; 8 Z 0 ; . . 7 A ",
"b > / m.,XaXaXaXsXrXS.>.a.`.{.H.B.9.8.9.9.9.8.8.7.%.%.%.*.%.%.-.7.8.9.8.9.9.9.9.7.%.*.%.%.%.%.%.+.H 6 @ & 9 6 5 5 0 9 8 = . 1 8 ",
"b , / n.:XpXaXaXaX6Xi.F 8 z [.4XF.8.9.7.8.8.8.8.8.8.%.K *.5.*.O.*.8.8.8.8.8.8.8.8.8.%.K %.7.*.K J D 5 . . @ 5 A 0 : 5 Z 0 @ . . ",
"b , / c.D.=XeXuX-Xz.4.F y 9 p._.y.7.-.*.7.8.9.8.9.8.=.*.1.8.-.&.7.8.-.&.7.8.9.8.8.8.7.-.7.8.-.$.U 0 = . & 5 0 6 6 5 6 0 9 5 = . ",
"P.@ ) 8.9.N.,X5Xk.:.O.J K U 9 j / 8.%.J *.7.8.8.8.8.8.8.8.8.8.9.8.6.%.G %.8.8.8.8.8.8.8.7.7.8.8.E > . @ 8 I 0 : 8 Z 0 , 8 Z 6 . ",
"n ; P *.%.<.i.G.z.k.r.<.i.j.c @ P %.P q Y -.7.8.9.9.8.9.=.-.V.K.n.%.P q U *.1.8.8.9.8.8.7.%.M.H.} > 2 a r 0 w a r 0 w a p 6 - . ",
"B @ y J J J K 4.#X4XD.v.=X2Xo.1 d O.e : y F *.3.8.3.8.8.*.>.+X6Xz.' w 1 w H %.3.3.3.8.6.*.$.G.4X`.k s ,.! 3 d ,.d 1 s ;.E : . . ",
"n @ - q A H K 1.S.#X&X+X#X{.`.(.l.k.q.p w i u R Q E ( <.u.z.2XuX>Xz.w.d w 0 r R Q E T =.t.G.>XyXOX/.} [ } s.p.d p 9 w E p 5 * . ",
"b . . : L K =.8.c.N.:X3Xh.>.+XwXyX7XD.2.p ; ; > @ : q #.J.rXpXaXiXeXH.2.d ; @ ; ; > 0 J z.wXaXaXuXqX).z /.OX_.k 5 Z 0 : 8 Z 6 @ ",
"b . X ; P %.7.c.D.@X+XF.4.@.Z.;X7XtXK.3.I 8 8 7 & . 0 ` +XaXaXaXaXuX%X9.I 9 5 8 1 . 5 #.G.pXaXaX5X*X{.(.).).p.d w w 6 5 6 6 = . ",
"b .   2 ) 9.8.v.;X3Xi.#.J O.<.n.:XwXF.6.` D D A 7 @ 0 #.z.uXpXpXiXtXK.8.%.F D A 5 ; 0 T z.tXiXtX&XM.@X2X).l d ,.Q 1 5 Z 0 ; . . ",
"m 7 + h a.H.N.c.F.+Xr.G @.&.%.<.S.@XN.%.K H C 6 6 5 6 u f.&X=X&X=X&XV.*.K G C 0 5 5 6 u y.#X=X&XV.1.B.#Xa.9 w d d a w 0 = . & 7 ",
"| A = k [.3XD.8.0.9.%.K *.1.&.@.1.0.&.G G D 5 & 0 Z 7 1 ^ x.c.c.c.0.*.J J F 6 : 0 Z 6 : E x.c.c.<.@.<.6.=.F 6 3 a ,.R : . . 7 S ",
"| A - h d.$Xb.*.&.*.%.%.&.=.i.k.r.*.%.%.K H C 6 6 0 6 w ( 6.8.8.=.&.%.%.K G C 5 6 0 6 6 / 8.7.8.M.k.u.=.*.&.I 6 r Q a 8 * . 5 D ",
"| S 7 , ) 6.*.J J +.-.7.+.$.#X3Xi.` *.1.` H D S 7 @ 0 Y *.8.8.3.*.+.*.7.%.G F S 5 ; 6 S *.8.8.c.H.3XG.@.%.3.%.D 0 : 7 Z 0 @ 5 D ",
"| ` L 9 a E Y J +.%.*.&.%.*.i.G.t.%.%.%.P q A D 7 @ - q ] 8.-.*.%.%.%.*.I 0 Z D 5 @ = 0 ( 7.1.=.i.G.u.=.%.*.*.` u @ * 0 5 9 C H ",
"!.7.@.U 7 2 L H *.1.` K *.1.$.@.-.7.` D 9 : q A 7 . X : E <.%.K *.1.%.S 6 & 0 S 9 . o ; Q <.*.K K @.=.7.%.J %.<.Q # . @ 5 S H G ",
"g.8.=.` L 8 6 q a W U G %.&.+.J ` *.I q 5 8 0 5 * . X X e E U G +.*.I 0 6 5 0 5 = o o o 4 R U J G F +.*.K J U E e O ; 5 C H G G ",
"g.8.8.7.` A 7 @ @ 1 q F G F H F J H 7 @ 0 I 7 + @ # O . @ : q D J H 9 @ 6 Z 9 ; @ . . . . : 0 F F G D G H F 0 : @ . 7 S G G J +.",
"g.8.8.7.-.` L 5 5 5 6 0 0 0 0 0 0 9 + @ - 0 r t t r 9 5 5 5 9 0 0 0 + . = 0 w a s a w 5 6 7 6 6 0 0 0 0 0 0 6 5 7 6 L G G G r.h.",
"Q.x.8.9.9.2.' S Y I e O $ > @ > # # # # # # ~ r.2.2.' Y Y U 9 f # # # # # # Q e.2.2.;.Y S U p , # # @ @ # # 9 U S Y Y J J #.j.2X",
" X!.!.!.!.Q.Q..... .T.U.U.Y.T.R.Y.U.U.U.U.Y.E.!.!.!.Q.W.X.W.E.E.T.U.U.U.U.Y.E.!.!.!.Q.......R.R.T.U.U.U.U.Y.T...X.X...W.W.W.XX0X"
};
